<?xml version="1.0" standalone="no"?>
<!DOCTYPE svg PUBLIC "-//W3C//DTD SVG 20010904//EN"
 "http://www.w3.org/TR/2001/REC-SVG-20010904/DTD/svg10.dtd">
<svg version="1.0" xmlns="http://www.w3.org/2000/svg"
 width="2000.000000pt" height="2000.000000pt" viewBox="0 0 2000.000000 2000.000000"
 preserveAspectRatio="xMidYMid meet">

<g transform="translate(0.000000,2000.000000) scale(0.100000,-0.100000)"
fill="#000000" stroke="none">
<path d="M9625 19994 c-508 -26 -872 -63 -1296 -134 -1386 -232 -2727 -767
-3899 -1555 -1673 -1125 -2975 -2733 -3718 -4595 -393 -984 -618 -1985 -694
-3090 -16 -241 -16 -999 0 -1240 97 -1405 433 -2647 1047 -3870 694 -1380
1689 -2571 2930 -3505 1279 -962 2768 -1603 4334 -1865 592 -99 1034 -135
1671 -135 450 0 628 8 1000 46 1821 181 3541 853 5005 1954 1241 934 2236
2125 2930 3505 614 1223 950 2465 1047 3870 16 241 16 999 0 1240 -97 1405
-433 2647 -1047 3870 -1095 2180 -2963 3894 -5225 4798 -975 390 -1968 614
-3065 692 -149 11 -885 21 -1020 14z m6330 -3480 c118 -28 171 -54 234 -114
60 -57 131 -190 131 -245 0 -13 7 -50 15 -82 12 -46 15 -127 14 -408 0 -192
-5 -375 -10 -405 -5 -30 -13 -119 -18 -197 -5 -78 -12 -147 -16 -153 -4 -7
-11 -53 -16 -104 -5 -50 -15 -131 -23 -181 -8 -49 -19 -123 -25 -163 -6 -40
-15 -81 -21 -92 -5 -10 -10 -40 -10 -65 0 -25 -5 -56 -12 -68 -7 -12 -15 -44
-20 -72 -17 -115 -25 -151 -36 -172 -7 -12 -12 -35 -12 -51 0 -16 -7 -43 -15
-58 -8 -16 -15 -39 -15 -51 0 -12 -4 -32 -9 -45 -4 -13 -16 -50 -25 -83 -10
-33 -22 -73 -28 -90 -12 -36 -26 -87 -38 -135 -8 -37 -25 -84 -45 -135 -7 -16
-18 -48 -24 -70 -7 -22 -19 -57 -27 -77 -13 -35 -35 -93 -54 -143 -4 -11 -14
-38 -23 -60 -42 -112 -82 -205 -157 -370 -17 -38 -36 -79 -40 -90 -16 -39 -76
-160 -100 -202 -5 -10 -19 -38 -31 -63 -50 -106 -56 -116 -214 -400 -26 -47
-70 -118 -96 -159 -27 -41 -49 -76 -49 -79 0 -3 -20 -35 -43 -71 -24 -36 -75
-113 -113 -171 -107 -164 -291 -420 -361 -503 -24 -28 -43 -55 -43 -60 0 -4
-37 -52 -83 -105 -45 -53 -95 -115 -112 -137 -16 -22 -55 -69 -87 -105 -32
-36 -84 -95 -115 -132 -175 -202 -291 -327 -508 -542 -132 -131 -274 -268
-315 -305 -41 -36 -106 -96 -145 -132 -38 -36 -112 -101 -163 -145 -52 -43
-128 -109 -170 -146 -43 -38 -109 -93 -149 -123 -39 -30 -74 -59 -78 -64 -3
-6 -47 -42 -98 -80 -289 -220 -348 -265 -410 -313 -37 -28 -93 -70 -125 -91
-103 -71 -96 -54 -86 -202 15 -223 4 -691 -17 -761 -6 -18 -14 -74 -19 -125
-14 -133 -28 -228 -37 -242 -4 -7 -11 -34 -14 -62 -4 -27 -13 -70 -19 -95 -7
-25 -17 -63 -22 -85 -12 -45 -17 -65 -84 -290 -9 -33 -21 -67 -25 -75 -4 -8
-14 -33 -22 -55 -99 -261 -263 -601 -392 -808 -41 -66 -277 -420 -323 -484
-90 -126 -241 -314 -341 -426 -35 -40 -73 -88 -86 -107 -13 -19 -42 -53 -65
-75 -23 -22 -58 -62 -77 -90 -81 -113 -183 -187 -296 -214 -126 -30 -265 14
-364 117 -48 49 -68 82 -95 157 -16 45 -18 92 -18 497 0 246 -4 478 -10 515
-5 38 -14 124 -20 193 -16 180 -27 260 -39 300 -6 19 -11 50 -11 68 0 18 -5
42 -11 53 -6 11 -14 41 -19 67 -15 77 -49 210 -60 232 -4 9 -11 30 -14 48 -4
17 -12 34 -17 37 -5 4 -9 16 -9 29 0 12 -7 31 -15 42 -8 10 -15 27 -15 37 0 9
-4 25 -10 35 -10 19 -35 78 -44 105 -6 18 -45 23 -61 8 -26 -25 -807 -417
-847 -425 -117 -24 -330 -27 -344 -5 -3 5 -14 9 -25 9 -28 0 -106 40 -171 87
-46 35 -262 249 -938 934 -41 41 -163 165 -270 275 -107 110 -328 335 -491
500 -163 166 -314 325 -336 355 -109 148 -156 313 -134 469 7 45 16 92 21 104
37 94 62 150 125 281 40 83 81 170 92 195 90 199 142 311 159 342 8 14 14 40
14 57 0 27 -4 31 -40 41 -21 6 -42 15 -45 20 -3 6 -17 10 -31 10 -13 0 -32 4
-42 9 -30 15 -86 33 -127 41 -22 4 -53 12 -70 18 -69 23 -103 32 -129 32 -14
0 -43 7 -63 15 -19 8 -52 15 -73 15 -21 0 -54 7 -73 15 -20 8 -56 15 -79 15
-24 0 -59 5 -78 11 -41 13 -151 25 -340 38 -74 5 -164 14 -200 20 -36 6 -157
11 -271 11 -341 0 -535 22 -590 67 -8 7 -19 13 -24 13 -23 0 -113 93 -137 141
-44 91 -48 107 -48 195 0 72 4 94 29 148 32 71 123 177 205 239 28 21 67 53
86 71 39 36 216 172 295 226 171 117 238 160 246 160 5 0 9 4 9 8 0 5 21 21
48 36 26 15 62 36 80 46 73 45 101 61 172 102 41 24 82 46 90 51 8 4 65 33
125 65 155 82 237 123 260 132 11 4 52 22 90 40 39 18 84 39 100 46 17 6 55
24 85 38 30 14 62 26 70 26 8 0 24 7 34 15 11 8 28 15 38 15 10 0 26 4 36 9
60 29 147 61 185 68 15 3 30 9 33 14 3 5 14 9 26 9 11 0 34 6 51 13 49 21 99
38 137 48 19 4 64 16 100 25 36 8 85 20 110 24 99 19 156 32 186 41 17 5 48 9
70 9 21 0 55 5 74 11 19 6 85 15 145 19 61 5 139 13 175 19 101 16 434 14 527
-4 43 -8 107 -15 143 -15 36 0 92 -7 123 -15 32 -8 82 -15 112 -15 53 0 54 1
84 48 17 26 56 81 88 122 33 41 89 116 127 165 38 50 81 104 96 120 16 17 48
56 72 87 55 72 173 211 218 257 19 20 59 65 89 101 113 136 531 562 876 891
158 150 346 313 463 401 24 18 66 52 93 76 27 23 53 42 57 42 4 0 21 12 37 26
17 15 55 45 85 67 30 22 57 43 60 47 22 28 306 228 465 328 22 14 52 33 67 44
15 10 31 18 36 18 5 0 15 6 21 14 7 8 26 21 44 30 18 9 39 21 47 26 83 51 199
120 204 120 4 0 24 11 46 25 102 64 681 353 783 390 26 10 50 22 53 26 3 5 12
9 21 9 14 0 111 41 165 71 10 5 24 9 32 9 8 0 27 6 43 14 51 27 101 46 116 46
9 0 19 5 22 10 3 6 16 10 29 10 12 0 31 7 42 15 10 8 29 15 40 15 12 0 35 7
50 15 16 8 37 15 46 15 9 0 20 5 23 10 3 6 15 10 25 10 11 0 34 6 52 14 33 14
95 33 178 56 25 7 66 19 93 26 26 8 68 20 95 28 26 7 67 19 92 25 25 7 66 19
91 26 26 8 54 15 64 15 10 0 38 7 64 15 25 8 73 19 106 25 33 6 78 16 100 22
22 7 65 15 95 19 107 15 177 28 204 39 15 5 47 10 70 10 24 0 63 7 86 15 23 8
69 15 101 15 32 0 70 5 86 11 27 11 78 16 378 39 77 5 160 14 185 19 25 5 243
9 485 10 377 1 450 -1 510 -15z m-10366 -8775 c154 -48 246 -145 268 -280 19
-112 -4 -193 -84 -305 -54 -78 -1150 -1161 -1205 -1192 -123 -70 -223 -73
-363 -11 -47 21 -113 87 -147 148 -29 52 -31 63 -32 161 0 98 2 109 29 160 23
43 165 191 630 657 611 613 625 627 730 661 42 14 132 14 174 1z m1276 -1226
c11 -6 38 -19 59 -29 74 -36 138 -115 169 -211 18 -56 22 -143 8 -171 -5 -9
-16 -35 -25 -56 -10 -21 -41 -71 -71 -110 -45 -61 -856 -874 -2021 -2027 -281
-279 -424 -409 -447 -409 -4 0 -29 -10 -55 -21 -37 -17 -59 -20 -112 -17 -36
3 -74 10 -85 16 -11 6 -40 20 -63 32 -61 29 -124 91 -151 147 -12 27 -26 56
-32 65 -12 23 -12 183 1 206 5 9 17 35 27 57 12 28 137 159 411 430 217 214
614 608 882 875 1137 1132 1186 1179 1253 1211 57 27 69 29 147 26 47 -2 94
-8 105 -14z"/>
<path d="M15090 15765 c-58 -8 -146 -14 -197 -14 -50 -1 -104 -6 -120 -12 -15
-6 -66 -13 -113 -16 -47 -2 -99 -9 -116 -14 -17 -5 -69 -14 -115 -19 -133 -15
-228 -28 -251 -36 -12 -4 -47 -10 -78 -15 -30 -5 -91 -15 -135 -24 -44 -9
-103 -20 -131 -24 -28 -5 -61 -14 -72 -20 -11 -6 -33 -11 -47 -11 -14 0 -35
-5 -46 -11 -11 -6 -41 -14 -67 -19 -26 -4 -72 -15 -102 -24 -30 -9 -72 -19
-93 -23 -21 -3 -40 -10 -43 -14 -3 -5 -15 -9 -27 -9 -12 0 -35 -7 -51 -15 -15
-8 -36 -15 -45 -15 -9 0 -29 -7 -45 -15 -15 -8 -36 -15 -46 -15 -10 0 -31 -7
-46 -15 -16 -8 -37 -15 -47 -15 -9 0 -25 -4 -35 -9 -46 -23 -95 -41 -112 -41
-10 0 -22 -4 -25 -10 -3 -5 -16 -10 -29 -10 -12 0 -31 -7 -42 -15 -10 -8 -27
-15 -36 -15 -9 0 -29 -6 -45 -14 -39 -19 -84 -38 -178 -76 -44 -17 -84 -36
-89 -41 -6 -5 -16 -9 -24 -9 -7 0 -39 -12 -70 -26 -122 -56 -228 -106 -242
-115 -8 -5 -26 -14 -40 -20 -51 -21 -116 -53 -150 -74 -19 -12 -73 -42 -120
-67 -47 -25 -103 -56 -125 -68 -22 -12 -57 -32 -78 -44 -52 -29 -63 -36 -130
-79 -31 -20 -60 -37 -63 -37 -3 0 -55 -33 -117 -73 -62 -41 -129 -84 -150 -97
-44 -26 -284 -197 -401 -285 -197 -149 -275 -211 -364 -290 -31 -28 -82 -71
-112 -96 -30 -26 -71 -61 -90 -79 -19 -19 -93 -86 -165 -151 -244 -220 -661
-655 -926 -967 -103 -121 -286 -341 -412 -496 -190 -234 -331 -391 -382 -426
-104 -71 -245 -80 -395 -24 -19 7 -53 15 -75 19 -22 4 -76 14 -120 22 -101 20
-727 30 -790 13 -22 -6 -74 -15 -115 -20 -139 -17 -198 -28 -211 -36 -8 -4
-34 -12 -59 -16 -96 -16 -136 -25 -157 -36 -12 -7 -31 -12 -42 -12 -11 0 -35
-6 -53 -14 -18 -8 -60 -22 -93 -31 -33 -10 -64 -21 -69 -26 -6 -5 -17 -9 -25
-9 -9 0 -29 -7 -45 -15 -15 -8 -35 -15 -42 -15 -14 0 -22 -3 -82 -33 -19 -9
-39 -17 -45 -17 -6 0 -40 -14 -76 -31 -36 -17 -77 -35 -91 -41 -14 -6 -32 -14
-40 -19 -8 -5 -22 -12 -30 -15 -8 -3 -37 -17 -65 -29 -27 -13 -57 -26 -65 -29
-8 -3 -31 -16 -50 -27 -19 -12 -64 -37 -100 -56 -36 -20 -83 -46 -105 -58 -22
-13 -56 -32 -75 -42 -122 -68 -151 -86 -156 -94 -3 -5 27 -9 69 -9 41 0 99 -5
128 -10 30 -6 90 -15 134 -20 171 -20 221 -28 248 -39 16 -6 43 -11 60 -11 18
-1 43 -7 57 -15 14 -8 37 -14 52 -15 15 0 37 -4 50 -9 13 -4 50 -16 83 -25 33
-10 73 -24 88 -32 16 -8 37 -14 47 -14 10 0 31 -6 47 -14 15 -8 48 -20 73 -26
25 -7 59 -18 75 -25 17 -7 62 -25 100 -40 140 -55 277 -120 355 -166 79 -47
181 -148 210 -209 12 -25 26 -53 31 -62 5 -10 9 -64 9 -120 0 -96 -6 -127 -40
-213 -33 -84 -88 -212 -117 -275 -33 -70 -61 -130 -135 -290 -16 -36 -43 -92
-58 -125 -97 -208 -130 -284 -130 -301 0 -8 405 -420 899 -916 l900 -903 128
64 c70 35 135 67 143 72 8 5 60 31 115 59 55 28 107 55 115 60 32 19 447 219
490 235 25 10 56 22 69 29 34 16 179 14 221 -3 155 -61 237 -138 337 -316 23
-42 87 -171 105 -215 6 -14 16 -38 23 -55 7 -16 18 -41 24 -55 15 -35 62 -161
68 -185 3 -11 11 -34 19 -52 8 -17 14 -40 14 -50 0 -10 4 -23 9 -29 5 -5 14
-31 21 -59 11 -50 18 -79 40 -165 7 -25 16 -61 20 -80 4 -19 13 -55 20 -80 6
-25 15 -70 20 -102 4 -31 11 -62 15 -69 8 -12 12 -40 34 -234 6 -49 15 -114
21 -144 5 -29 10 -80 10 -112 0 -33 4 -59 9 -59 5 0 18 15 30 33 34 52 44 68
91 136 93 133 190 294 257 421 24 47 48 92 53 100 16 27 90 189 90 197 0 5 11
31 25 58 13 28 25 57 25 66 0 8 7 24 15 35 8 10 15 28 15 39 0 11 7 29 15 39
8 11 15 29 15 41 0 12 4 25 9 31 5 5 16 36 26 69 9 33 21 71 26 85 5 14 13 45
19 70 5 25 14 66 19 93 6 26 15 56 21 66 5 11 10 36 10 56 0 20 5 45 11 57 10
19 18 68 38 250 5 42 14 107 21 145 18 104 7 585 -15 683 -10 41 -20 119 -22
172 -4 93 -3 101 27 160 17 35 47 81 68 103 44 48 165 148 264 218 25 17 99
73 163 122 65 50 127 97 139 105 12 8 49 37 82 65 34 27 98 79 144 115 45 36
110 88 145 115 35 28 116 95 180 150 64 55 152 129 194 165 191 159 747 698
873 845 34 39 85 96 115 127 30 31 82 90 116 131 34 41 96 114 137 162 41 49
93 112 115 141 138 181 305 403 321 429 10 17 42 63 71 102 29 40 53 75 53 79
0 3 11 20 25 38 14 18 25 36 25 39 0 3 19 34 43 69 24 35 58 88 75 118 18 30
37 62 42 70 85 138 315 574 379 720 13 30 37 84 54 120 27 61 45 101 69 160 5
14 16 38 24 53 8 16 14 35 14 43 0 8 4 22 9 32 5 9 16 36 25 60 9 23 23 61 32
85 9 23 20 50 25 59 5 10 9 25 9 34 0 9 6 28 14 42 17 34 37 90 43 122 2 14 8
34 13 45 5 11 11 31 13 45 3 14 10 41 17 60 33 97 33 96 60 215 7 28 16 54 21
59 5 6 9 26 9 45 0 20 7 49 15 65 8 15 15 41 15 56 0 16 5 41 11 57 12 30 24
99 38 208 5 39 14 83 20 98 6 16 11 52 11 82 0 30 5 66 11 82 13 33 27 172 38
373 5 80 14 197 20 260 7 63 11 171 9 240 l-3 125 -195 1 c-113 1 -239 -4
-300 -11z m-3155 -2475 c108 -14 165 -26 177 -38 7 -7 21 -12 33 -12 12 0 30
-7 41 -15 10 -8 26 -15 35 -15 17 0 143 -63 210 -106 190 -119 375 -335 470
-549 12 -27 28 -62 35 -77 8 -14 14 -35 14 -45 0 -11 3 -23 7 -27 19 -19 49
-183 60 -331 7 -103 -28 -361 -58 -417 -5 -10 -9 -25 -9 -34 0 -9 -6 -28 -14
-42 -7 -15 -28 -58 -45 -96 -124 -267 -368 -498 -656 -621 -85 -36 -146 -57
-195 -65 -25 -4 -61 -13 -80 -19 -48 -16 -405 -17 -445 -1 -16 6 -50 15 -75
20 -40 7 -59 13 -135 40 -11 4 -50 22 -87 39 -37 17 -70 31 -73 31 -22 0 -195
130 -273 205 -157 151 -320 424 -339 568 -3 20 -9 40 -14 43 -5 3 -9 20 -9 37
0 18 -7 57 -15 87 -17 65 -20 297 -4 350 9 32 16 62 35 170 3 19 12 49 20 67
8 17 14 36 14 41 0 6 11 32 25 58 14 26 25 51 25 55 0 26 135 224 199 293 163
175 321 276 571 366 121 43 381 62 555 40z"/>
<path d="M11655 12563 c-75 -16 -194 -77 -252 -127 -48 -42 -143 -170 -143
-193 0 -8 -7 -25 -17 -39 -13 -21 -16 -52 -16 -167 l0 -142 38 -78 c53 -110
141 -202 237 -249 132 -65 142 -68 246 -68 105 0 163 15 272 70 76 38 109 67
169 148 53 72 65 97 86 177 26 98 28 140 9 227 -29 136 -54 181 -161 291 -59
60 -147 110 -252 141 -49 15 -168 20 -216 9z"/>
</g>
</svg>
